<svg xmlns="http://www.w3.org/2000/svg" height="517.333" width="854.667" xml:space="preserve"><defs><clipPath id="a" clipPathUnits="userSpaceOnUse"><path d="M0 388h641V0H0z"/></clipPath></defs><g clip-path="url(#a)" transform="matrix(1.33333 0 0 -1.33333 0 517.333)"><path style="fill:#243d95;fill-opacity:1;fill-rule:nonzero;stroke:none" d="M0 0c-.75 1.44-1.89 2.55-3.42 3.33-1.53.81-3.48 1.21-5.83 1.21h-8.19v-19.15h8.25c2.33 0 4.26.4 5.77 1.2 1.53.83 2.67 1.96 3.42 3.4C.77-8.56 1.15-6.88 1.15-5 1.15-3.09.77-1.42 0 0m398.82-11.19c0-2.05-.43-3.46-1.26-4.18l-.06-.06c-.24-.21-1.69-1.3-6.6-1.3h-20.57c-4.83 0-6.4 1.04-6.76 1.36-.83.72-1.26 2.13-1.26 4.18v5.25h36.51zM351.19 5.75v-16.7c0-5.14 1.6-9.38 4.65-12.33.17-.16.35-.32.53-.48 3.22-2.81 7.89-4.17 14.26-4.17h20.36c6.39 0 11.04 1.37 14.18 4.19 3.38 2.96 5.16 7.38 5.16 12.79v16.7zM0 0c-.75 1.44-1.89 2.55-3.42 3.33-1.53.81-3.48 1.21-5.83 1.21h-8.19v-19.15h8.25c2.33 0 4.26.4 5.77 1.2 1.53.83 2.67 1.96 3.42 3.4C.77-8.56 1.15-6.88 1.15-5 1.15-3.09.77-1.42 0 0m398.82-11.19c0-2.05-.43-3.46-1.26-4.18l-.06-.06c-.24-.21-1.69-1.3-6.6-1.3h-20.57c-4.83 0-6.4 1.04-6.76 1.36-.83.72-1.26 2.13-1.26 4.18v5.25h36.51zM351.19 5.75v-16.7c0-5.14 1.6-9.38 4.65-12.33.17-.16.35-.32.53-.48 3.22-2.81 7.89-4.17 14.26-4.17h20.36c6.39 0 11.04 1.37 14.18 4.19 3.38 2.96 5.16 7.38 5.16 12.79v16.7zM0 0c-.75 1.44-1.89 2.55-3.42 3.33-1.53.81-3.48 1.21-5.83 1.21h-8.19v-19.15h8.25c2.33 0 4.26.4 5.77 1.2 1.53.83 2.67 1.96 3.42 3.4C.77-8.56 1.15-6.88 1.15-5 1.15-3.09.77-1.42 0 0m51.12.53c-.75 1.31-1.9 2.3-3.45 2.97-1.53.69-3.46 1.04-5.8 1.04h-8.19v-17.39h8.25c2.31 0 4.24.32 5.77.96 1.53.63 2.67 1.59 3.42 2.86.77 1.27 1.15 2.85 1.15 4.74 0 1.9-.38 3.51-1.15 4.82m60.87-4.52c-.08.19-.16.37-.26.55-1.16 2.52-2.77 4.45-4.81 5.79-2.19 1.44-4.75 2.16-7.68 2.16-2.94 0-5.5-.72-7.69-2.16-2.03-1.34-3.65-3.27-4.84-5.79-.09-.18-.18-.36-.26-.55-1.2-2.78-1.79-6.2-1.79-10.26 0-4.05.59-7.48 1.79-10.26 1.22-2.78 2.92-4.9 5.1-6.34 2.19-1.44 4.75-2.16 7.69-2.16 2.93 0 5.49.72 7.68 2.16 2.19 1.44 3.88 3.56 5.07 6.34 1.22 2.78 1.83 6.21 1.83 10.26 0 4.06-.61 7.48-1.83 10.26m286.83-7.2c0-2.05-.43-3.46-1.26-4.18l-.06-.06c-.24-.21-1.69-1.3-6.6-1.3h-20.57c-4.83 0-6.4 1.04-6.76 1.36-.83.72-1.26 2.13-1.26 4.18v5.25h36.51zM351.19 5.75v-16.7c0-5.14 1.6-9.38 4.65-12.33.17-.16.35-.32.53-.48 3.22-2.81 7.89-4.17 14.26-4.17h20.36c6.39 0 11.04 1.37 14.18 4.19 3.38 2.96 5.16 7.38 5.16 12.79v16.7zM0 0c-.75 1.44-1.89 2.55-3.42 3.33-1.53.81-3.48 1.21-5.83 1.21h-8.19v-19.15h8.25c2.33 0 4.26.4 5.77 1.2 1.53.83 2.67 1.96 3.42 3.4C.77-8.56 1.15-6.88 1.15-5 1.15-3.09.77-1.42 0 0m51.12.53c-.75 1.31-1.9 2.3-3.45 2.97-1.53.69-3.46 1.04-5.8 1.04h-8.19v-17.39h8.25c2.31 0 4.24.32 5.77.96 1.53.63 2.67 1.59 3.42 2.86.77 1.27 1.15 2.85 1.15 4.74 0 1.9-.38 3.51-1.15 4.82m60.87-4.52c-.08.19-.16.37-.26.55-1.16 2.52-2.77 4.45-4.81 5.79-2.19 1.44-4.75 2.16-7.68 2.16-2.94 0-5.5-.72-7.69-2.16-2.03-1.34-3.65-3.27-4.84-5.79-.09-.18-.18-.36-.26-.55-1.2-2.78-1.79-6.2-1.79-10.26 0-4.05.59-7.48 1.79-10.26 1.22-2.78 2.92-4.9 5.1-6.34 2.19-1.44 4.75-2.16 7.69-2.16 2.93 0 5.49.72 7.68 2.16 2.19 1.44 3.88 3.56 5.07 6.34 1.22 2.78 1.83 6.21 1.83 10.26 0 4.06-.61 7.48-1.83 10.26m286.83-7.2c0-2.05-.43-3.46-1.26-4.18l-.06-.06c-.24-.21-1.69-1.3-6.6-1.3h-20.57c-4.83 0-6.4 1.04-6.76 1.36-.83.72-1.26 2.13-1.26 4.18v5.25h36.51zM351.19 5.75v-16.7c0-5.14 1.6-9.38 4.65-12.33.17-.16.35-.32.53-.48 3.22-2.81 7.89-4.17 14.26-4.17h20.36c6.39 0 11.04 1.37 14.18 4.19 3.38 2.96 5.16 7.38 5.16 12.79v16.7zM0 0c-.75 1.44-1.89 2.55-3.42 3.33-1.53.81-3.48 1.21-5.83 1.21h-8.19v-19.15h8.25c2.33 0 4.26.4 5.77 1.2 1.53.83 2.67 1.96 3.42 3.4C.77-8.56 1.15-6.88 1.15-5 1.15-3.09.77-1.42 0 0m51.12.53c-.75 1.31-1.9 2.3-3.45 2.97-1.53.69-3.46 1.04-5.8 1.04h-8.19v-17.39h8.25c2.31 0 4.24.32 5.77.96 1.53.63 2.67 1.59 3.42 2.86.77 1.27 1.15 2.85 1.15 4.74 0 1.9-.38 3.51-1.15 4.82m60.87-4.52c-.08.19-.16.37-.26.55-1.16 2.52-2.77 4.45-4.81 5.79-2.19 1.44-4.75 2.16-7.68 2.16-2.94 0-5.5-.72-7.69-2.16-2.03-1.34-3.65-3.27-4.84-5.79-.09-.18-.18-.36-.26-.55-1.2-2.78-1.79-6.2-1.79-10.26 0-4.05.59-7.48 1.79-10.26 1.22-2.78 2.92-4.9 5.1-6.34 2.19-1.44 4.75-2.16 7.69-2.16 2.93 0 5.49.72 7.68 2.16 2.19 1.44 3.88 3.56 5.07 6.34 1.22 2.78 1.83 6.21 1.83 10.26 0 4.06-.61 7.48-1.83 10.26m49.62-20.28c-1.38 1.02-3.37 1.54-5.97 1.54h-7.48v-10.86h7.48c1.73 0 3.2.25 4.4.76 1.2.52 2.1 1.2 2.72 2.04.63.86.94 1.79.94 2.8 0 1.47-.69 2.71-2.09 3.72m37.86 12.93h-.36l-5.67-14h11.68zm199.35.15c0-2.05-.43-3.46-1.26-4.18l-.06-.06c-.24-.21-1.69-1.3-6.6-1.3h-20.57c-4.83 0-6.4 1.04-6.76 1.36-.83.72-1.26 2.13-1.26 4.18v5.25h36.51zM351.19 5.75v-16.7c0-5.14 1.6-9.38 4.65-12.33.17-.16.35-.32.53-.48 3.22-2.81 7.89-4.17 14.26-4.17h20.36c6.39 0 11.04 1.37 14.18 4.19 3.38 2.96 5.16 7.38 5.16 12.79v16.7zM0 0c-.75 1.44-1.89 2.55-3.42 3.33-1.53.81-3.48 1.21-5.83 1.21h-8.19v-19.15h8.25c2.33 0 4.26.4 5.77 1.2 1.53.83 2.67 1.96 3.42 3.4C.77-8.56 1.15-6.88 1.15-5 1.15-3.09.77-1.42 0 0m51.12.53c-.75 1.31-1.9 2.3-3.45 2.97-1.53.69-3.46 1.04-5.8 1.04h-8.19v-17.39h8.25c2.31 0 4.24.32 5.77.96 1.53.63 2.67 1.59 3.42 2.86.77 1.27 1.15 2.85 1.15 4.74 0 1.9-.38 3.51-1.15 4.82m60.87-4.52c-.08.19-.16.37-.26.55-1.16 2.52-2.77 4.45-4.81 5.79-2.19 1.44-4.75 2.16-7.68 2.16-2.94 0-5.5-.72-7.69-2.16-2.03-1.34-3.65-3.27-4.84-5.79-.09-.18-.18-.36-.26-.55-1.2-2.78-1.79-6.2-1.79-10.26 0-4.05.59-7.48 1.79-10.26 1.22-2.78 2.92-4.9 5.1-6.34 2.19-1.44 4.75-2.16 7.69-2.16 2.93 0 5.49.72 7.68 2.16 2.19 1.44 3.88 3.56 5.07 6.34 1.22 2.78 1.83 6.21 1.83 10.26 0 4.06-.61 7.48-1.83 10.26m286.83-7.2c0-2.05-.43-3.46-1.26-4.18l-.06-.06c-.24-.21-1.69-1.3-6.6-1.3h-20.57c-4.83 0-6.4 1.04-6.76 1.36-.83.72-1.26 2.13-1.26 4.18v5.25h36.51zM351.19 5.75v-16.7c0-5.14 1.6-9.38 4.65-12.33.17-.16.35-.32.53-.48 3.22-2.81 7.89-4.17 14.26-4.17h20.36c6.39 0 11.04 1.37 14.18 4.19 3.38 2.96 5.16 7.38 5.16 12.79v16.7zM199.47-11.34h-.36l-5.67-14h11.68zm-37.86-12.93c-1.38 1.02-3.37 1.54-5.97 1.54h-7.48v-10.86h7.48c1.73 0 3.2.25 4.4.76 1.2.52 2.1 1.2 2.72 2.04.63.86.94 1.79.94 2.8 0 1.47-.69 2.71-2.09 3.72M0 0c-.75 1.44-1.89 2.55-3.42 3.33-1.53.81-3.48 1.21-5.83 1.21h-8.19v-19.15h8.25c2.33 0 4.26.4 5.77 1.2 1.53.83 2.67 1.96 3.42 3.4C.77-8.56 1.15-6.88 1.15-5 1.15-3.09.77-1.42 0 0m51.12.53c-.75 1.31-1.9 2.3-3.45 2.97-1.53.69-3.46 1.04-5.8 1.04h-8.19v-17.39h8.25c2.31 0 4.24.32 5.77.96 1.53.63 2.67 1.59 3.42 2.86.77 1.27 1.15 2.85 1.15 4.74 0 1.9-.38 3.51-1.15 4.82m60.87-4.52c-.08.19-.16.37-.26.55-1.16 2.52-2.77 4.45-4.81 5.79-2.19 1.44-4.75 2.16-7.68 2.16-2.94 0-5.5-.72-7.69-2.16-2.03-1.34-3.65-3.27-4.84-5.79-.09-.18-.18-.36-.26-.55-1.2-2.78-1.79-6.2-1.79-10.26 0-4.05.59-7.48 1.79-10.26 1.22-2.78 2.92-4.9 5.1-6.34 2.19-1.44 4.75-2.16 7.69-2.16 2.93 0 5.49.72 7.68 2.16 2.19 1.44 3.88 3.56 5.07 6.34 1.22 2.78 1.83 6.21 1.83 10.26 0 4.06-.61 7.48-1.83 10.26m49.62-20.28c-1.38 1.02-3.37 1.54-5.97 1.54h-7.48v-10.86h7.48c1.73 0 3.2.25 4.4.76 1.2.52 2.1 1.2 2.72 2.04.63.86.94 1.79.94 2.8 0 1.47-.69 2.71-2.09 3.72m37.86 12.93h-.36l-5.67-14h11.68zm89.01 0h-.36l-5.66-14h11.68zm110.34.15c0-2.05-.43-3.46-1.26-4.18l-.06-.06c-.24-.21-1.69-1.3-6.6-1.3h-20.57c-4.83 0-6.4 1.04-6.76 1.36-.83.72-1.26 2.13-1.26 4.18v5.25h36.51zM351.19 5.75v-16.7c0-5.14 1.6-9.38 4.65-12.33.17-.16.35-.32.53-.48 3.22-2.81 7.89-4.17 14.26-4.17h20.36c6.39 0 11.04 1.37 14.18 4.19 3.38 2.96 5.16 7.38 5.16 12.79v16.7zM0 0c-.75 1.44-1.89 2.55-3.42 3.33-1.53.81-3.48 1.21-5.83 1.21h-8.19v-19.15h8.25c2.33 0 4.26.4 5.77 1.2 1.53.83 2.67 1.96 3.42 3.4C.77-8.56 1.15-6.88 1.15-5 1.15-3.09.77-1.42 0 0m51.12.53c-.75 1.31-1.9 2.3-3.45 2.97-1.53.69-3.46 1.04-5.8 1.04h-8.19v-17.39h8.25c2.31 0 4.24.32 5.77.96 1.53.63 2.67 1.59 3.42 2.86.77 1.27 1.15 2.85 1.15 4.74 0 1.9-.38 3.51-1.15 4.82m60.87-4.52c-.08.19-.16.37-.26.55-1.16 2.52-2.77 4.45-4.81 5.79-2.19 1.44-4.75 2.16-7.68 2.16-2.94 0-5.5-.72-7.69-2.16-2.03-1.34-3.65-3.27-4.84-5.79-.09-.18-.18-.36-.26-.55-1.2-2.78-1.79-6.2-1.79-10.26 0-4.05.59-7.48 1.79-10.26 1.22-2.78 2.92-4.9 5.1-6.34 2.19-1.44 4.75-2.16 7.69-2.16 2.93 0 5.49.72 7.68 2.16 2.19 1.44 3.88 3.56 5.07 6.34 1.22 2.78 1.83 6.21 1.83 10.26 0 4.06-.61 7.48-1.83 10.26m286.83-7.2c0-2.05-.43-3.46-1.26-4.18l-.06-.06c-.24-.21-1.69-1.3-6.6-1.3h-20.57c-4.83 0-6.4 1.04-6.76 1.36-.83.72-1.26 2.13-1.26 4.18v5.25h36.51zM351.19 5.75v-16.7c0-5.14 1.6-9.38 4.65-12.33.17-.16.35-.32.53-.48 3.22-2.81 7.89-4.17 14.26-4.17h20.36c6.39 0 11.04 1.37 14.18 4.19 3.38 2.96 5.16 7.38 5.16 12.79v16.7zm-62.71-17.09h-.36l-5.66-14h11.68zm-89.01 0h-.36l-5.67-14h11.68zm-37.86-12.93c-1.38 1.02-3.37 1.54-5.97 1.54h-7.48v-10.86h7.48c1.73 0 3.2.25 4.4.76 1.2.52 2.1 1.2 2.72 2.04.63.86.94 1.79.94 2.8 0 1.47-.69 2.71-2.09 3.72M-3.42 3.33c-1.53.81-3.48 1.21-5.83 1.21h-8.19v-19.15h8.25c2.33 0 4.26.4 5.77 1.2 1.53.83 2.67 1.96 3.42 3.4C.77-8.56 1.15-6.88 1.15-5 1.15-3.09.77-1.42 0 0c-.75 1.44-1.89 2.55-3.42 3.33m51.09.17c-1.53.69-3.46 1.04-5.8 1.04h-8.19v-17.39h8.25c2.31 0 4.24.32 5.77.96 1.53.63 2.67 1.59 3.42 2.86.77 1.27 1.15 2.85 1.15 4.74 0 1.9-.38 3.51-1.15 4.82-.75 1.31-1.9 2.3-3.45 2.97m64.06-6.94c-1.16 2.52-2.77 4.45-4.81 5.79-2.19 1.44-4.75 2.16-7.68 2.16-2.94 0-5.5-.72-7.69-2.16-2.03-1.34-3.65-3.27-4.84-5.79-.09-.18-.18-.36-.26-.55-1.2-2.78-1.79-6.2-1.79-10.26 0-4.05.59-7.48 1.79-10.26 1.22-2.78 2.92-4.9 5.1-6.34 2.19-1.44 4.75-2.16 7.69-2.16 2.93 0 5.49.72 7.68 2.16 2.19 1.44 3.88 3.56 5.07 6.34 1.22 2.78 1.83 6.21 1.83 10.26 0 4.06-.61 7.48-1.83 10.26-.08.19-.16.37-.26.55m49.88-20.83c-1.38 1.02-3.37 1.54-5.97 1.54h-7.48v-10.86h7.48c1.73 0 3.2.25 4.4.76 1.2.52 2.1 1.2 2.72 2.04.63.86.94 1.79.94 2.8 0 1.47-.69 2.71-2.09 3.72m37.5 12.93-5.67-14h11.68l-5.65 14zm89.01 0-5.66-14h11.68l-5.66 14zm74.19 5.4h36.51v-5.25c0-2.05-.43-3.46-1.26-4.18l-.06-.06c-.24-.21-1.69-1.3-6.6-1.3h-20.57c-4.83 0-6.4 1.04-6.76 1.36-.83.72-1.26 2.13-1.26 4.18zm-5.94-17.82c3.22-2.81 7.89-4.17 14.26-4.17h20.36c6.39 0 11.04 1.37 14.18 4.19 3.38 2.96 5.16 7.38 5.16 12.79v16.7h-59.14v-16.7c0-5.14 1.6-9.38 4.65-12.33.17-.16.35-.32.53-.48M13.66-5c0-3.81-.83-7.17-2.47-10.09C9.54-18 7.16-20.28 4.04-21.9c-3.1-1.63-6.86-2.44-11.27-2.44h-10.21v-18.62h-12.14v57.42h22.66c4.35 0 8.06-.83 11.13-2.49 3.06-1.65 5.4-3.94 7.01-6.87 1.62-2.92 2.44-6.28 2.44-10.1m53.16-37.96h-13.4L42.54-22.6h-8.86v-20.36H21.54v57.42H44.2c4.33 0 8.03-.77 11.1-2.32 3.08-1.54 5.43-3.71 7.04-6.54 1.62-2.8 2.44-6.1 2.44-9.89 0-3.82-.83-7.1-2.47-9.85-1.65-2.73-4.03-4.82-7.15-6.28a8.46 8.46 0 0 0-.53-.23zm59.31 28.71c0-6.26-1.19-11.59-3.57-15.98-2.35-4.39-5.57-7.75-9.64-10.06-4.06-2.3-8.62-3.45-13.68-3.45-5.11 0-9.69 1.15-13.74 3.47-4.06 2.32-7.27 5.68-9.62 10.07-2.35 4.39-3.53 9.71-3.53 15.95 0 3.98.48 7.59 1.43 10.81.55 1.85 1.25 3.58 2.1 5.17 2.35 4.4 5.56 7.74 9.62 10.04 4.05 2.32 8.63 3.48 13.74 3.48 5.06 0 9.62-1.16 13.68-3.48 4.07-2.3 7.29-5.64 9.64-10.04.87-1.59 1.57-3.32 2.13-5.17.96-3.22 1.44-6.83 1.44-10.81m290.51 3.3c0-8.66-2.1-14.84-6.41-18.89l-.14-.13c-4.46-4.17-11.36-6.29-20.52-6.29h-17.62c-9.15 0-16.06 2.12-20.53 6.29-.19.18-.37.36-.55.55-3.96 4.06-5.89 10.11-5.89 18.47v16.7H131.24v.11a85.296 85.296 0 0 1-5.22 17.26c-13.31 31.7-44.88 54.03-81.33 54.03-48.41 0-87.79-39.38-87.79-87.79 0-48.41 39.38-87.79 87.79-87.79 32.18 0 60.37 17.4 75.64 43.29h8.84c-16.03-30.31-47.88-51-84.48-51-52.66 0-95.5 42.84-95.5 95.5s42.84 95.5 95.5 95.5c40.79 0 75.91-25.69 89.63-61.74 1.15-2.98 2.13-6.03 2.96-9.14h279.36zM300.01-39.87l-3.41 8.43h-16.61l-3.41-8.43h-10.42L281.8-3.44l.24.55h12.53l.24-.55 15.62-36.43zm-40.89 4.76c-1.51-1.63-3.6-2.92-6.27-3.86-2.66-.94-5.72-1.41-9.16-1.41-3.36 0-6.35.46-8.97 1.39-2.6.94-4.66 2.23-6.17 3.87-1.5 1.64-2.27 3.55-2.32 5.7h9.8c.06-.9.42-1.7 1.1-2.38.69-.68 1.6-1.2 2.74-1.57 1.14-.38 2.42-.56 3.84-.56 1.48 0 2.79.21 3.93.63 1.14.42 2.03 1.01 2.67 1.75.65.75.97 1.61.97 2.58 0 .99-.34 1.86-1.03 2.62-.68.77-1.65 1.38-2.92 1.81-1.26.43-2.76.65-4.5.65h-4.29v5.74h4.29c1.47 0 2.77.21 3.89.62 1.14.41 2.02.97 2.65 1.69.63.74.94 1.59.94 2.57 0 .93-.27 1.74-.83 2.44-.54.71-1.3 1.26-2.29 1.66-.97.4-2.11.59-3.41.59-1.32 0-2.53-.19-3.62-.57-1.09-.38-1.97-.91-2.63-1.61-.66-.7-1.01-1.52-1.05-2.46h-9.33c.05 2.13.8 4.01 2.27 5.64 1.47 1.62 3.45 2.89 5.93 3.81.31.12.63.23.95.33 2.26.71 4.77 1.06 7.52 1.06 2.78 0 5.25-.35 7.43-1.06.31-.1.61-.21.91-.33 2.38-.93 4.23-2.18 5.54-3.76 1.34-1.56 2-3.32 1.98-5.27.02-2.07-.79-3.8-2.4-5.18-1.61-1.39-3.7-2.27-6.27-2.64v-.29c3.38-.35 5.96-1.29 7.73-2.84 1.78-1.53 2.66-3.44 2.65-5.74.01-2.11-.74-3.98-2.27-5.62m-48.13-4.76-3.4 8.43h-16.62l-3.41-8.43h-10.42l15.64 36.43.24.55h12.53l.24-.55 15.62-36.43zm-39.81 5.65c-1.44-1.77-3.48-3.16-6.13-4.15-2.64-1-5.77-1.5-9.41-1.5h-17.21v36.98h30.53v-6.44h-20.8v-7.23h7.48c3.64 0 6.77-.47 9.41-1.42 2.65-.94 4.69-2.27 6.13-4 1.44-1.72 2.16-3.75 2.16-6.08s-.72-4.38-2.16-6.16m247.25 59.84H144.79c-15.01 40.3-53.83 69-99.36 69-58.54 0-106-47.46-106-106s47.46-106 106-106c39.8 0 74.47 21.93 92.59 54.37h50.2l17.97-8.69a14.323 14.323 0 0 1 14.95 1.55l11.34 8.72a8.934 8.934 0 0 0 10.19.49l11.75-7.34c6.5-4.06 15.04-2.29 19.38 4.02l11.63 16.88h27.55c4.94 0 8.95 4.01 8.95 8.95v22.92c0 3.97 1.99 7.48 5.03 9.57h5.84v-5.25c0-12.06 3.43-21.37 10.19-27.7 6.74-6.3 16.38-9.49 28.68-9.49h17.79c12.29 0 21.94 3.19 28.66 9.48 6.84 6.32 10.31 15.65 10.31 27.71v26.81c0 5.51-4.49 10-10 10M161.61-24.27c-1.38 1.02-3.37 1.54-5.97 1.54h-7.48v-10.86h7.48c1.73 0 3.2.25 4.4.76 1.2.52 2.1 1.2 2.72 2.04.63.86.94 1.79.94 2.8 0 1.47-.69 2.71-2.09 3.72m37.86 12.93h-.36l-5.67-14h11.68zm89.01 0h-.36l-5.66-14h11.68zm110.34.15c0-2.05-.43-3.46-1.26-4.18l-.06-.06c-.24-.21-1.69-1.3-6.6-1.3h-20.57c-4.83 0-6.4 1.04-6.76 1.36-.83.72-1.26 2.13-1.26 4.18v5.25h36.51zM351.19 5.75v-16.7c0-5.14 1.6-9.38 4.65-12.33.17-.16.35-.32.53-.48 3.22-2.81 7.89-4.17 14.26-4.17h20.36c6.39 0 11.04 1.37 14.18 4.19 3.38 2.96 5.16 7.38 5.16 12.79v16.7zm-239.2-9.74c-.08.19-.16.37-.26.55-1.16 2.52-2.77 4.45-4.81 5.79-2.19 1.44-4.75 2.16-7.68 2.16-2.94 0-5.5-.72-7.69-2.16-2.03-1.34-3.65-3.27-4.84-5.79-.09-.18-.18-.36-.26-.55-1.2-2.78-1.79-6.2-1.79-10.26 0-4.05.59-7.48 1.79-10.26 1.22-2.78 2.92-4.9 5.1-6.34 2.19-1.44 4.75-2.16 7.69-2.16 2.93 0 5.49.72 7.68 2.16 2.19 1.44 3.88 3.56 5.07 6.34 1.22 2.78 1.83 6.21 1.83 10.26 0 4.06-.61 7.48-1.83 10.26M51.12.53c-.75 1.31-1.9 2.3-3.45 2.97-1.53.69-3.46 1.04-5.8 1.04h-8.19v-17.39h8.25c2.31 0 4.24.32 5.77.96 1.53.63 2.67 1.59 3.42 2.86.77 1.27 1.15 2.85 1.15 4.74 0 1.9-.38 3.51-1.15 4.82M0 0c-.75 1.44-1.89 2.55-3.42 3.33-1.53.81-3.48 1.21-5.83 1.21h-8.19v-19.15h8.25c2.33 0 4.26.4 5.77 1.2 1.53.83 2.67 1.96 3.42 3.4C.77-8.56 1.15-6.88 1.15-5 1.15-3.09.77-1.42 0 0m398.82-11.19c0-2.05-.43-3.46-1.26-4.18l-.06-.06c-.24-.21-1.69-1.3-6.6-1.3h-20.57c-4.83 0-6.4 1.04-6.76 1.36-.83.72-1.26 2.13-1.26 4.18v5.25h36.51zM351.19 5.75v-16.7c0-5.14 1.6-9.38 4.65-12.33.17-.16.35-.32.53-.48 3.22-2.81 7.89-4.17 14.26-4.17h20.36c6.39 0 11.04 1.37 14.18 4.19 3.38 2.96 5.16 7.38 5.16 12.79v16.7zm-62.71-17.09h-.36l-5.66-14h11.68zm-89.01 0h-.36l-5.67-14h11.68zm-37.86-12.93c-1.38 1.02-3.37 1.54-5.97 1.54h-7.48v-10.86h7.48c1.73 0 3.2.25 4.4.76 1.2.52 2.1 1.2 2.72 2.04.63.86.94 1.79.94 2.8 0 1.47-.69 2.71-2.09 3.72M111.99-3.99c-.08.19-.16.37-.26.55-1.16 2.52-2.77 4.45-4.81 5.79-2.19 1.44-4.75 2.16-7.68 2.16-2.94 0-5.5-.72-7.69-2.16-2.03-1.34-3.65-3.27-4.84-5.79-.09-.18-.18-.36-.26-.55-1.2-2.78-1.79-6.2-1.79-10.26 0-4.05.59-7.48 1.79-10.26 1.22-2.78 2.92-4.9 5.1-6.34 2.19-1.44 4.75-2.16 7.69-2.16 2.93 0 5.49.72 7.68 2.16 2.19 1.44 3.88 3.56 5.07 6.34 1.22 2.78 1.83 6.21 1.83 10.26 0 4.06-.61 7.48-1.83 10.26M51.12.53c-.75 1.31-1.9 2.3-3.45 2.97-1.53.69-3.46 1.04-5.8 1.04h-8.19v-17.39h8.25c2.31 0 4.24.32 5.77.96 1.53.63 2.67 1.59 3.42 2.86.77 1.27 1.15 2.85 1.15 4.74 0 1.9-.38 3.51-1.15 4.82M0 0c-.75 1.44-1.89 2.55-3.42 3.33-1.53.81-3.48 1.21-5.83 1.21h-8.19v-19.15h8.25c2.33 0 4.26.4 5.77 1.2 1.53.83 2.67 1.96 3.42 3.4C.77-8.56 1.15-6.88 1.15-5 1.15-3.09.77-1.42 0 0m161.61-24.27c-1.38 1.02-3.37 1.54-5.97 1.54h-7.48v-10.86h7.48c1.73 0 3.2.25 4.4.76 1.2.52 2.1 1.2 2.72 2.04.63.86.94 1.79.94 2.8 0 1.47-.69 2.71-2.09 3.72m37.86 12.93h-.36l-5.67-14h11.68zm199.35.15c0-2.05-.43-3.46-1.26-4.18l-.06-.06c-.24-.21-1.69-1.3-6.6-1.3h-20.57c-4.83 0-6.4 1.04-6.76 1.36-.83.72-1.26 2.13-1.26 4.18v5.25h36.51zM351.19 5.75v-16.7c0-5.14 1.6-9.38 4.65-12.33.17-.16.35-.32.53-.48 3.22-2.81 7.89-4.17 14.26-4.17h20.36c6.39 0 11.04 1.37 14.18 4.19 3.38 2.96 5.16 7.38 5.16 12.79v16.7zm-239.2-9.74c-.08.19-.16.37-.26.55-1.16 2.52-2.77 4.45-4.81 5.79-2.19 1.44-4.75 2.16-7.68 2.16-2.94 0-5.5-.72-7.69-2.16-2.03-1.34-3.65-3.27-4.84-5.79-.09-.18-.18-.36-.26-.55-1.2-2.78-1.79-6.2-1.79-10.26 0-4.05.59-7.48 1.79-10.26 1.22-2.78 2.92-4.9 5.1-6.34 2.19-1.44 4.75-2.16 7.69-2.16 2.93 0 5.49.72 7.68 2.16 2.19 1.44 3.88 3.56 5.07 6.34 1.22 2.78 1.83 6.21 1.83 10.26 0 4.06-.61 7.48-1.83 10.26M51.12.53c-.75 1.31-1.9 2.3-3.45 2.97-1.53.69-3.46 1.04-5.8 1.04h-8.19v-17.39h8.25c2.31 0 4.24.32 5.77.96 1.53.63 2.67 1.59 3.42 2.86.77 1.27 1.15 2.85 1.15 4.74 0 1.9-.38 3.51-1.15 4.82M0 0c-.75 1.44-1.89 2.55-3.42 3.33-1.53.81-3.48 1.21-5.83 1.21h-8.19v-19.15h8.25c2.33 0 4.26.4 5.77 1.2 1.53.83 2.67 1.96 3.42 3.4C.77-8.56 1.15-6.88 1.15-5 1.15-3.09.77-1.42 0 0m398.82-11.19c0-2.05-.43-3.46-1.26-4.18l-.06-.06c-.24-.21-1.69-1.3-6.6-1.3h-20.57c-4.83 0-6.4 1.04-6.76 1.36-.83.72-1.26 2.13-1.26 4.18v5.25h36.51zM351.19 5.75v-16.7c0-5.14 1.6-9.38 4.65-12.33.17-.16.35-.32.53-.48 3.22-2.81 7.89-4.17 14.26-4.17h20.36c6.39 0 11.04 1.37 14.18 4.19 3.38 2.96 5.16 7.38 5.16 12.79v16.7zM199.47-11.34h-.36l-5.67-14h11.68zm-37.86-12.93c-1.38 1.02-3.37 1.54-5.97 1.54h-7.48v-10.86h7.48c1.73 0 3.2.25 4.4.76 1.2.52 2.1 1.2 2.72 2.04.63.86.94 1.79.94 2.8 0 1.47-.69 2.71-2.09 3.72M111.99-3.99c-.08.19-.16.37-.26.55-1.16 2.52-2.77 4.45-4.81 5.79-2.19 1.44-4.75 2.16-7.68 2.16-2.94 0-5.5-.72-7.69-2.16-2.03-1.34-3.65-3.27-4.84-5.79-.09-.18-.18-.36-.26-.55-1.2-2.78-1.79-6.2-1.79-10.26 0-4.05.59-7.48 1.79-10.26 1.22-2.78 2.92-4.9 5.1-6.34 2.19-1.44 4.75-2.16 7.69-2.16 2.93 0 5.49.72 7.68 2.16 2.19 1.44 3.88 3.56 5.07 6.34 1.22 2.78 1.83 6.21 1.83 10.26 0 4.06-.61 7.48-1.83 10.26M51.12.53c-.75 1.31-1.9 2.3-3.45 2.97-1.53.69-3.46 1.04-5.8 1.04h-8.19v-17.39h8.25c2.31 0 4.24.32 5.77.96 1.53.63 2.67 1.59 3.42 2.86.77 1.27 1.15 2.85 1.15 4.74 0 1.9-.38 3.51-1.15 4.82M0 0c-.75 1.44-1.89 2.55-3.42 3.33-1.53.81-3.48 1.21-5.83 1.21h-8.19v-19.15h8.25c2.33 0 4.26.4 5.77 1.2 1.53.83 2.67 1.96 3.42 3.4C.77-8.56 1.15-6.88 1.15-5 1.15-3.09.77-1.42 0 0m161.61-24.27c-1.38 1.02-3.37 1.54-5.97 1.54h-7.48v-10.86h7.48c1.73 0 3.2.25 4.4.76 1.2.52 2.1 1.2 2.72 2.04.63.86.94 1.79.94 2.8 0 1.47-.69 2.71-2.09 3.72m237.21 13.08c0-2.05-.43-3.46-1.26-4.18l-.06-.06c-.24-.21-1.69-1.3-6.6-1.3h-20.57c-4.83 0-6.4 1.04-6.76 1.36-.83.72-1.26 2.13-1.26 4.18v5.25h36.51zM351.19 5.75v-16.7c0-5.14 1.6-9.38 4.65-12.33.17-.16.35-.32.53-.48 3.22-2.81 7.89-4.17 14.26-4.17h20.36c6.39 0 11.04 1.37 14.18 4.19 3.38 2.96 5.16 7.38 5.16 12.79v16.7zm-239.2-9.74c-.08.19-.16.37-.26.55-1.16 2.52-2.77 4.45-4.81 5.79-2.19 1.44-4.75 2.16-7.68 2.16-2.94 0-5.5-.72-7.69-2.16-2.03-1.34-3.65-3.27-4.84-5.79-.09-.18-.18-.36-.26-.55-1.2-2.78-1.79-6.2-1.79-10.26 0-4.05.59-7.48 1.79-10.26 1.22-2.78 2.92-4.9 5.1-6.34 2.19-1.44 4.75-2.16 7.69-2.16 2.93 0 5.49.72 7.68 2.16 2.19 1.44 3.88 3.56 5.07 6.34 1.22 2.78 1.83 6.21 1.83 10.26 0 4.06-.61 7.48-1.83 10.26M51.12.53c-.75 1.31-1.9 2.3-3.45 2.97-1.53.69-3.46 1.04-5.8 1.04h-8.19v-17.39h8.25c2.31 0 4.24.32 5.77.96 1.53.63 2.67 1.59 3.42 2.86.77 1.27 1.15 2.85 1.15 4.74 0 1.9-.38 3.51-1.15 4.82M0 0c-.75 1.44-1.89 2.55-3.42 3.33-1.53.81-3.48 1.21-5.83 1.21h-8.19v-19.15h8.25c2.33 0 4.26.4 5.77 1.2 1.53.83 2.67 1.96 3.42 3.4C.77-8.56 1.15-6.88 1.15-5 1.15-3.09.77-1.42 0 0m398.82-11.19c0-2.05-.43-3.46-1.26-4.18l-.06-.06c-.24-.21-1.69-1.3-6.6-1.3h-20.57c-4.83 0-6.4 1.04-6.76 1.36-.83.72-1.26 2.13-1.26 4.18v5.25h36.51zM351.19 5.75v-16.7c0-5.14 1.6-9.38 4.65-12.33.17-.16.35-.32.53-.48 3.22-2.81 7.89-4.17 14.26-4.17h20.36c6.39 0 11.04 1.37 14.18 4.19 3.38 2.96 5.16 7.38 5.16 12.79v16.7zM161.61-24.27c-1.38 1.02-3.37 1.54-5.97 1.54h-7.48v-10.86h7.48c1.73 0 3.2.25 4.4.76 1.2.52 2.1 1.2 2.72 2.04.63.86.94 1.79.94 2.8 0 1.47-.69 2.71-2.09 3.72M111.99-3.99c-.08.19-.16.37-.26.55-1.16 2.52-2.77 4.45-4.81 5.79-2.19 1.44-4.75 2.16-7.68 2.16-2.94 0-5.5-.72-7.69-2.16-2.03-1.34-3.65-3.27-4.84-5.79-.09-.18-.18-.36-.26-.55-1.2-2.78-1.79-6.2-1.79-10.26 0-4.05.59-7.48 1.79-10.26 1.22-2.78 2.92-4.9 5.1-6.34 2.19-1.44 4.75-2.16 7.69-2.16 2.93 0 5.49.72 7.68 2.16 2.19 1.44 3.88 3.56 5.07 6.34 1.22 2.78 1.83 6.21 1.83 10.26 0 4.06-.61 7.48-1.83 10.26M51.12.53c-.75 1.31-1.9 2.3-3.45 2.97-1.53.69-3.46 1.04-5.8 1.04h-8.19v-17.39h8.25c2.31 0 4.24.32 5.77.96 1.53.63 2.67 1.59 3.42 2.86.77 1.27 1.15 2.85 1.15 4.74 0 1.9-.38 3.51-1.15 4.82M0 0c-.75 1.44-1.89 2.55-3.42 3.33-1.53.81-3.48 1.21-5.83 1.21h-8.19v-19.15h8.25c2.33 0 4.26.4 5.77 1.2 1.53.83 2.67 1.96 3.42 3.4C.77-8.56 1.15-6.88 1.15-5 1.15-3.09.77-1.42 0 0m398.82-11.19c0-2.05-.43-3.46-1.26-4.18l-.06-.06c-.24-.21-1.69-1.3-6.6-1.3h-20.57c-4.83 0-6.4 1.04-6.76 1.36-.83.72-1.26 2.13-1.26 4.18v5.25h36.51zM351.19 5.75v-16.7c0-5.14 1.6-9.38 4.65-12.33.17-.16.35-.32.53-.48 3.22-2.81 7.89-4.17 14.26-4.17h20.36c6.39 0 11.04 1.37 14.18 4.19 3.38 2.96 5.16 7.38 5.16 12.79v16.7zM51.12.53c-.75 1.31-1.9 2.3-3.45 2.97-1.53.69-3.46 1.04-5.8 1.04h-8.19v-17.39h8.25c2.31 0 4.24.32 5.77.96 1.53.63 2.67 1.59 3.42 2.86.77 1.27 1.15 2.85 1.15 4.74 0 1.9-.38 3.51-1.15 4.82M0 0c-.75 1.44-1.89 2.55-3.42 3.33-1.53.81-3.48 1.21-5.83 1.21h-8.19v-19.15h8.25c2.33 0 4.26.4 5.77 1.2 1.53.83 2.67 1.96 3.42 3.4C.77-8.56 1.15-6.88 1.15-5 1.15-3.09.77-1.42 0 0m398.82-11.19c0-2.05-.43-3.46-1.26-4.18l-.06-.06c-.24-.21-1.69-1.3-6.6-1.3h-20.57c-4.83 0-6.4 1.04-6.76 1.36-.83.72-1.26 2.13-1.26 4.18v5.25h36.51zM351.19 5.75v-16.7c0-5.14 1.6-9.38 4.65-12.33.17-.16.35-.32.53-.48 3.22-2.81 7.89-4.17 14.26-4.17h20.36c6.39 0 11.04 1.37 14.18 4.19 3.38 2.96 5.16 7.38 5.16 12.79v16.7zM51.12.53c-.75 1.31-1.9 2.3-3.45 2.97-1.53.69-3.46 1.04-5.8 1.04h-8.19v-17.39h8.25c2.31 0 4.24.32 5.77.96 1.53.63 2.67 1.59 3.42 2.86.77 1.27 1.15 2.85 1.15 4.74 0 1.9-.38 3.51-1.15 4.82M0 0c-.75 1.44-1.89 2.55-3.42 3.33-1.53.81-3.48 1.21-5.83 1.21h-8.19v-19.15h8.25c2.33 0 4.26.4 5.77 1.2 1.53.83 2.67 1.96 3.42 3.4C.77-8.56 1.15-6.88 1.15-5 1.15-3.09.77-1.42 0 0m398.82-11.19c0-2.05-.43-3.46-1.26-4.18l-.06-.06c-.24-.21-1.69-1.3-6.6-1.3h-20.57c-4.83 0-6.4 1.04-6.76 1.36-.83.72-1.26 2.13-1.26 4.18v5.25h36.51zM351.19 5.75v-16.7c0-5.14 1.6-9.38 4.65-12.33.17-.16.35-.32.53-.48 3.22-2.81 7.89-4.17 14.26-4.17h20.36c6.39 0 11.04 1.37 14.18 4.19 3.38 2.96 5.16 7.38 5.16 12.79v16.7zm47.63-16.94c0-2.05-.43-3.46-1.26-4.18l-.06-.06c-.24-.21-1.69-1.3-6.6-1.3h-20.57c-4.83 0-6.4 1.04-6.76 1.36-.83.72-1.26 2.13-1.26 4.18v5.25h36.51zM351.19 5.75v-16.7c0-5.14 1.6-9.38 4.65-12.33.17-.16.35-.32.53-.48 3.22-2.81 7.89-4.17 14.26-4.17h20.36c6.39 0 11.04 1.37 14.18 4.19 3.38 2.96 5.16 7.38 5.16 12.79v16.7z" transform="translate(141.373 203.978)"/></g></svg>